# xmcd CD database file
#
# Track frame offsets:
#	150
#	29253
#	53779
#	85104
#	99418
#	120434
#	153292
#	176620
#
# Disc length: 2571 seconds
#
# Revision: 0
# Processed by: cddbd v1.5PL3 Copyright (c) Steve Scherf et al.
# Submitted via: CDex 1.51
#
DISCID=540a0908
DTITLE=Marco Detto Trio - Falling In Jazz With Love
DYEAR=2003
DGENRE=Jazz
TTITLE0=Falling in Jazz with Love
TTITLE1=My Romance
TTITLE2=Here's That Rainy Day
TTITLE3=Sr. Thomas
TTITLE4=Confirmation
TTITLE5=Lover Man
TTITLE6=Very Early
TTITLE7=Triste
EXTD=YEAR: 2003
EXTT0=
EXTT1=
EXTT2=
EXTT3=
EXTT4=
EXTT5=
EXTT6=
EXTT7=
PLAYORDER=
